<?xml version="1.0" encoding="UTF-8"?>
<svg xmlns="http://www.w3.org/2000/svg" viewBox="0 0 512 512" role="img" aria-labelledby="title">
  <title id="title">Black Chelsea Boots</title>
  <defs>
    <linearGradient id="cloth" x1="0" y1="0" x2="1" y2="1">
      <stop offset="0" stop-color="#525352"/>
      <stop offset=".42" stop-color="#2c2d2c"/>
      <stop offset="1" stop-color="#222322"/>
    </linearGradient>
    <filter id="soft-shadow" x="-30%" y="-30%" width="160%" height="170%">
      <feDropShadow dx="0" dy="9" stdDeviation="8" flood-color="#171714" flood-opacity=".16"/>
    </filter>
    <filter id="fabric" x="-10%" y="-10%" width="120%" height="120%">
      <feTurbulence type="fractalNoise" baseFrequency=".72" numOctaves="2" seed="551" result="noise"/>
      <feColorMatrix in="noise" type="matrix" values=".08 0 0 0 .45  0 .08 0 0 .45  0 0 .08 0 .45  0 0 0 .13 0" result="softNoise"/>
      <feBlend in="SourceGraphic" in2="softNoise" mode="soft-light"/>
    </filter>
  </defs>
  <style>.garment{--detail:#515250;filter:url(#soft-shadow)}.garment&gt;*{vector-effect:non-scaling-stroke}.garment{stroke:#222322;stroke-width:1.15;stroke-linejoin:round;stroke-linecap:round}.garment{filter:url(#soft-shadow)}</style>
  <g filter="url(#fabric)"><g class="garment"><g transform="translate(73 -35) scale(.78)" opacity=".72"><path d="M116 92h151l-2 184q53 37 142 48 42 6 39 47-139 34-329 1z" fill="url(#cloth)"/><path d="M117 349q196 31 329 0v34q-158 31-329 3z" fill="#515250"/><path d="M139 119h103M239 109v174" fill="none" stroke="#515250" stroke-width="11" opacity=".46"/></g><g><path d="M116 92h151l-2 184q53 37 142 48 42 6 39 47-139 34-329 1z" fill="url(#cloth)"/><path d="M117 349q196 31 329 0v34q-158 31-329 3z" fill="#515250"/><path d="M139 119h103M239 109v174" fill="none" stroke="#515250" stroke-width="11" opacity=".46"/></g></g></g>
</svg>