<?xml version="1.0" encoding="UTF-8"?>
<svg xmlns="http://www.w3.org/2000/svg" viewBox="0 0 600 720" role="img" aria-labelledby="title desc">
  <title id="title">Sand Overshirt</title>
  <desc id="desc">Editorial product illustration of a light sand overshirt.</desc>
  <defs>
    <linearGradient id="backdrop" x1="0" y1="0" x2="1" y2="1">
      <stop offset="0" stop-color="#ece9e1"/>
      <stop offset="1" stop-color="#d6d0c3"/>
    </linearGradient>
    <linearGradient id="cloth" x1="0" y1="0" x2="1" y2="1">
      <stop offset="0" stop-color="#ddd0b7"/>
      <stop offset=".5" stop-color="#c4b08d"/>
      <stop offset="1" stop-color="#9d8968"/>
    </linearGradient>
    <filter id="shadow" x="-30%" y="-30%" width="160%" height="180%">
      <feDropShadow dx="0" dy="18" stdDeviation="14" flood-color="#3c352b" flood-opacity=".22"/>
    </filter>
  </defs>
  <rect width="600" height="720" fill="url(#backdrop)"/>
  <circle cx="105" cy="124" r="105" fill="#f8f5ee" opacity=".58"/>
  <ellipse cx="302" cy="642" rx="180" ry="24" fill="#655c4e" opacity=".13"/>
  <g filter="url(#shadow)">
    <g stroke="#8f7d62" stroke-width="2" stroke-linejoin="round" stroke-linecap="round">
      <path d="M196 166l61-43q43 27 86 0l61 43 64 50 40 293-72 18-52-251 14 331q-98 30-196 0l14-331-52 251-72-18 40-293z" fill="url(#cloth)"/>
      <path d="M257 123l43 58-42 49-34-88zm86 0-43 58 42 49 34-88z" fill="#e3d7bf" opacity=".78"/>
      <path d="M300 181v430" fill="none" stroke="#ebe0ca" stroke-width="3" opacity=".7"/>
      <path d="M218 261h64v89q-32 16-64 0zm100 0h64v89q-32 16-64 0z" fill="none" stroke="#eee4d1" stroke-width="3" opacity=".72"/>
      <path d="M116 451l69-12m230 0 69 12" fill="none" stroke="#eee4d1" stroke-width="3" opacity=".42"/>
      <g fill="#77664e" stroke="none">
        <circle cx="300" cy="260" r="4"/><circle cx="300" cy="322" r="4"/><circle cx="300" cy="384" r="4"/><circle cx="300" cy="446" r="4"/><circle cx="300" cy="508" r="4"/><circle cx="300" cy="570" r="4"/>
      </g>
    </g>
  </g>
</svg>
